<svg xmlns="http://www.w3.org/2000/svg" viewBox="0 0 74.5 73.03"><defs><style>.cls-1{fill:#9ca5aa;}.cls-2{fill:#fff;}</style></defs><title>Recurso 134</title><g id="Capa_2" data-name="Capa 2"><g id="Capa_1-2" data-name="Capa 1"><rect class="cls-1" width="74.5" height="73.03" rx="16.46"/><circle class="cls-2" cx="36.88" cy="26.95" r="3.19"/><path class="cls-2" d="M43.07,36.52l12-12a2.12,2.12,0,0,0,0-3,21.21,21.21,0,0,0-36.26,15,21.21,21.21,0,0,0,36.26,15,2.13,2.13,0,0,0,0-3Zm-3,17a17,17,0,1,1,0-34,16.75,16.75,0,0,1,10.4,3.6L38.56,35a2.14,2.14,0,0,0,0,3l11.91,11.9A16.75,16.75,0,0,1,40.07,53.52Z"/></g></g></svg>